<svg xmlns="http://www.w3.org/2000/svg" width="151" height="48" viewBox="0 0 151 48"><g><g><g><path fill="#e6f6ff" d="M145.618 47.371H5.326a4.677 4.677 0 0 1-4.676-4.68V5.259A4.677 4.677 0 0 1 5.326.578h140.292a4.677 4.677 0 0 1 4.677 4.68v37.434a4.678 4.678 0 0 1-4.677 4.68z"/></g><g><path fill="#0967d2" d="M28.565 12.934c.99-1.24 1.669-2.928 1.48-4.64-1.433.064-3.227.994-4.26 2.206-.913 1.07-1.73 2.82-1.519 4.468 1.611.119 3.265-.813 4.3-2.034zm3.628 10.75c-.033-3.655 2.992-5.434 3.13-5.517-1.713-2.499-4.368-2.841-5.301-2.867-2.23-.236-4.392 1.334-5.529 1.334-1.158 0-2.908-1.312-4.793-1.273-2.425.038-4.695 1.443-5.94 3.625-2.569 4.452-.653 10.99 1.808 14.587 1.23 1.763 2.67 3.73 4.552 3.66 1.842-.078 2.53-1.176 4.754-1.176 2.203 0 2.849 1.176 4.77 1.133 1.976-.035 3.222-1.771 4.41-3.548 1.422-2.02 1.993-4.01 2.016-4.11-.045-.017-3.84-1.464-3.877-5.848z"/></g><g><path fill="#0967d2" d="M135.402 14.093h-3.562c.015.527.186.931.516 1.21.3.25.691.375 1.167.375.526 0 1.007-.084 1.441-.254l.186.826c-.507.22-1.103.33-1.794.33-.827 0-1.478-.243-1.95-.731-.473-.49-.709-1.144-.709-1.965 0-.806.22-1.478.66-2.013.46-.573 1.083-.86 1.87-.86.768 0 1.352.287 1.746.86.316.454.474 1.015.474 1.683 0 .213-.016.393-.045.54zm-1.32-1.76c-.205-.33-.52-.496-.945-.496-.387 0-.704.161-.945.485a1.78 1.78 0 0 0-.352.924h2.473a1.59 1.59 0 0 0-.23-.913zm-6.312 4.147v-3.04c0-.958-.358-1.437-1.076-1.437-.55 0-.928.278-1.133.833a1.496 1.496 0 0 0-.056.43v3.214h-1.186V8.68h1.186v3.223h.022c.374-.586.91-.878 1.605-.878.492 0 .9.16 1.223.484.403.403.605 1 .605 1.793v3.18zm-6.41-4.456v2.596c0 .661.232.991.694.991.212 0 .389-.017.528-.054l.031.902c-.234.088-.542.132-.922.132-.47 0-.836-.142-1.099-.43-.266-.286-.397-.767-.397-1.44v-2.697h-.78v-.89h.78v-.98l1.166-.353v1.332h1.308v.89zm-7.874 4.456v-3.062c0-.944-.358-1.415-1.077-1.415-.353 0-.639.129-.858.389-.22.26-.33.566-.33.917v3.171h-1.188v-3.816c0-.471-.014-.98-.043-1.53h1.043l.056.835h.033c.14-.26.345-.475.615-.646a2 2 0 0 1 1.078-.3c.499 0 .912.162 1.242.485.412.395.617.986.617 1.77v3.202zm-5.905-.692c-.492.543-1.142.814-1.958.814-.783 0-1.407-.26-1.874-.781-.466-.52-.698-1.177-.698-1.97 0-.83.239-1.507.72-2.035.48-.53 1.126-.792 1.942-.792.783 0 1.414.259 1.89.78.455.507.682 1.16.682 1.958 0 .822-.234 1.498-.704 2.026zm-.845-3.255c-.25-.428-.606-.64-1.068-.64-.476 0-.84.212-1.09.64-.212.352-.318.783-.318 1.29 0 .493.106.916.319 1.27.257.426.615.64 1.078.64.454 0 .81-.218 1.067-.651.22-.36.33-.787.33-1.28s-.106-.917-.318-1.27zM97.07 16.48l-.055-.858h-.033c-.337.653-.91.98-1.716.98-.645 0-1.18-.253-1.605-.76-.426-.505-.638-1.162-.638-1.968 0-.867.23-1.567.693-2.102.447-.5.996-.748 1.65-.748.716 0 1.22.24 1.505.725h.022V8.68h1.19v6.36c0 .522.012 1.002.042 1.441zm-.177-3.146a1.352 1.352 0 0 0-.462-1.096 1.17 1.17 0 0 0-.795-.29 1.22 1.22 0 0 0-1.046.527c-.252.353-.38.803-.38 1.354 0 .529.121.958.365 1.288.257.352.604.528 1.038.528.39 0 .702-.147.94-.44.227-.271.34-.598.34-.98zm-6.587 3.146l-.089-.616h-.033c-.365.493-.886.738-1.56.738-.506 0-.913-.16-1.22-.485-.28-.293-.419-.656-.419-1.089 0-.653.272-1.151.819-1.497.547-.344 1.315-.513 2.305-.506v-.1c0-.703-.37-1.054-1.11-1.054-.526 0-.992.132-1.393.396l-.24-.782c.495-.308 1.11-.461 1.833-.461 1.397 0 2.096.737 2.096 2.211v1.97c0 .534.027.96.078 1.275zm-.166-2.662c-1.31-.021-1.966.338-1.966 1.079 0 .277.075.487.228.626.153.14.347.21.58.21.262 0 .505-.083.726-.248a1.012 1.012 0 0 0 .432-.841zm-5.221 1.97c-.492.543-1.145.814-1.957.814-.787 0-1.411-.26-1.876-.781-.465-.52-.697-1.177-.697-1.97 0-.83.24-1.507.719-2.035.48-.53 1.127-.792 1.94-.792.786 0 1.415.259 1.892.78.455.507.683 1.16.683 1.958 0 .822-.235 1.498-.704 2.026zm-.849-3.255c-.247-.428-.603-.64-1.065-.64-.478 0-.841.212-1.089.64-.212.352-.318.783-.318 1.29 0 .493.106.916.318 1.27.257.426.615.64 1.079.64.453 0 .807-.218 1.065-.651.22-.36.33-.787.33-1.28s-.107-.917-.32-1.27zm-6.628 3.947V8.68h1.186v7.801zm-3.278 0v-3.062c0-.944-.359-1.415-1.077-1.415a1.07 1.07 0 0 0-.858.389c-.22.26-.33.566-.33.917v3.171H70.71v-3.816c0-.471-.014-.98-.043-1.53h1.044l.055.835h.033a1.71 1.71 0 0 1 .615-.646c.323-.2.683-.3 1.078-.3.5 0 .914.162 1.244.485.41.395.614.986.614 1.77v3.202zm-6.643 0h-1.088l-.693-2.32a17.167 17.167 0 0 1-.43-1.728h-.02a12.708 12.708 0 0 1-.43 1.727l-.737 2.321h-1.1l-1.572-5.347h1.221l.605 2.542c.146.6.266 1.173.363 1.716h.021c.088-.446.235-1.016.44-1.704l.759-2.554h.967l.726 2.498c.177.608.32 1.196.43 1.76h.032c.081-.55.202-1.137.363-1.76l.65-2.498h1.165zm-7.939-.692c-.491.543-1.143.814-1.957.814-.785 0-1.41-.26-1.875-.781-.466-.52-.698-1.177-.698-1.97 0-.83.24-1.507.72-2.035.48-.53 1.127-.792 1.94-.792.785 0 1.415.259 1.893.78.453.507.681 1.16.681 1.958 0 .822-.234 1.498-.704 2.026zm-.847-3.255c-.249-.428-.604-.64-1.066-.64-.477 0-.84.212-1.09.64-.212.352-.318.783-.318 1.29 0 .493.106.916.319 1.27.256.426.616.64 1.078.64.454 0 .81-.218 1.066-.651.22-.36.33-.787.33-1.28s-.106-.917-.319-1.27zm-6.289 3.078c-.74.623-1.792.936-3.155.936a14.84 14.84 0 0 1-1.738-.088V9.164c.63-.103 1.312-.156 2.046-.156 1.297 0 2.276.284 2.936.848.739.638 1.11 1.551 1.11 2.74 0 1.336-.4 2.34-1.199 3.015zm-.742-4.972c-.458-.464-1.127-.694-2.007-.694a4.97 4.97 0 0 0-.957.078v5.544c.146.023.415.034.803.034.91 0 1.61-.253 2.106-.76.495-.507.743-1.243.743-2.21 0-.867-.23-1.531-.688-1.992zm84.73 21.48h-7.252c.03 1.077.38 1.898 1.053 2.466.61.507 1.4.76 2.371.76 1.074 0 2.052-.17 2.933-.516l.38 1.68c-1.03.45-2.245.673-3.647.673-1.688 0-3.012-.497-3.974-1.491-.962-.99-1.445-2.325-1.445-3.997 0-1.64.448-3.01 1.344-4.1.94-1.162 2.208-1.746 3.804-1.746 1.568 0 2.755.584 3.561 1.747.64.926.962 2.07.962 3.428 0 .432-.03.798-.09 1.096zm-2.685-3.583c-.419-.672-1.062-1.007-1.927-1.007-.79 0-1.433.327-1.924.986-.403.523-.642 1.15-.716 1.88h5.036c.015-.715-.142-1.335-.469-1.859zm-8.798-.379c-.85 0-1.508.32-1.97.963-.403.567-.604 1.283-.604 2.15v5.71h-2.416l.022-7.457c0-1.255-.031-2.398-.09-3.429h2.105l.089 2.084h.066c.255-.716.658-1.292 1.21-1.724a2.92 2.92 0 0 1 1.746-.583c.224 0 .425.017.604.045v2.306a4.202 4.202 0 0 0-.762-.065zm-8.526 7.412c-1.001 1.107-2.33 1.657-3.986 1.657-1.597 0-2.868-.529-3.815-1.59-.948-1.06-1.422-2.396-1.422-4.008 0-1.687.488-3.068 1.466-4.143.977-1.077 2.294-1.614 3.95-1.614 1.597 0 2.881.53 3.85 1.591.926 1.03 1.389 2.36 1.389 3.987 0 1.672-.479 3.046-1.432 4.12zm-1.725-6.626c-.507-.868-1.23-1.302-2.17-1.302-.972 0-1.71.434-2.216 1.302-.434.719-.649 1.594-.649 2.629 0 1.003.215 1.863.649 2.583.523.867 1.253 1.303 2.194 1.303.924 0 1.647-.442 2.17-1.326.447-.733.67-1.602.67-2.606 0-1.003-.214-1.864-.648-2.583zm-11.528-1.033v5.286c0 1.343.47 2.016 1.411 2.016.432 0 .79-.038 1.074-.112l.067 1.836c-.476.18-1.103.268-1.88.268-.955 0-1.7-.29-2.24-.872-.535-.584-.805-1.56-.805-2.936V27.91h-1.587v-1.816h1.587v-1.993l2.373-.716v2.71h2.665v1.815zm-6.666 7.973c-.983.882-2.352 1.321-4.11 1.321-1.623 0-2.925-.312-3.91-.94l.56-2.017a6.624 6.624 0 0 0 3.494.965c.91 0 1.619-.207 2.128-.617.507-.412.759-.961.759-1.65 0-.613-.208-1.129-.627-1.548-.415-.419-1.11-.807-2.08-1.168-2.642-.985-3.962-2.43-3.962-4.329 0-1.241.463-2.259 1.389-3.05.923-.793 2.154-1.19 3.693-1.19 1.372 0 2.513.24 3.423.716l-.604 1.972c-.85-.462-1.812-.694-2.887-.694-.851 0-1.516.209-1.992.628a1.789 1.789 0 0 0-.604 1.366c0 .596.23 1.09.694 1.477.402.36 1.133.746 2.194 1.166 1.297.522 2.251 1.135 2.864 1.835.611.703.917 1.577.917 2.622 0 1.284-.445 2.327-1.34 3.135zm-14.151-.09c-.894.956-2.006 1.433-3.334 1.433-1.433 0-2.463-.514-3.089-1.545h-.044v5.735h-2.417V29.68c0-1.165-.031-2.359-.09-3.586h2.126l.134 1.726h.045c.806-1.3 2.028-1.949 3.67-1.949 1.283 0 2.355.507 3.213 1.521.858 1.02 1.287 2.354 1.287 4.012 0 1.85-.5 3.315-1.501 4.39zm-1.679-6.92c-.523-.716-1.221-1.077-2.103-1.077-.598 0-1.138.2-1.623.594-.485.396-.8.916-.95 1.558-.074.299-.112.546-.112.738V32.5c0 .792.242 1.461.725 2.005.485.545 1.117.817 1.894.817.91 0 1.618-.352 2.125-1.053.507-.7.761-1.628.761-2.778 0-1.06-.238-1.932-.717-2.62zm-10.832 6.92c-.896.956-2.007 1.433-3.335 1.433-1.433 0-2.462-.514-3.089-1.545h-.045v5.735h-2.417V29.68c0-1.165-.03-2.359-.09-3.586h2.126l.135 1.726h.044c.807-1.3 2.03-1.949 3.672-1.949 1.283 0 2.354.507 3.212 1.521.858 1.02 1.286 2.354 1.286 4.012 0 1.85-.499 3.315-1.5 4.39zm-1.679-6.92c-.522-.716-1.224-1.077-2.104-1.077-.597 0-1.138.2-1.623.594a2.75 2.75 0 0 0-.951 1.558c-.075.299-.112.546-.112.738V32.5c0 .792.243 1.461.728 2.005.484.545 1.115.817 1.891.817.91 0 1.619-.352 2.126-1.053.507-.7.761-1.628.761-2.778 0-1.06-.238-1.932-.716-2.62zM56.28 36.98l-1.41-4.433h-4.903l-1.343 4.433h-2.506l4.856-15.096h3l4.88 15.096zm-3.112-10.236c-.134-.404-.388-1.351-.76-2.845h-.046c-.149.644-.388 1.591-.716 2.845l-1.253 3.942h4.051z"/></g></g></g></svg>